<?xml version="1.0" encoding="UTF-8"?>
<svg id="Layer_2" data-name="Layer 2" xmlns="http://www.w3.org/2000/svg" xmlns:xlink="http://www.w3.org/1999/xlink" viewBox="0 0 1314.49 567.76">
  <defs>
    <style>
      .cls-1 {
        fill: url(#radial-gradient-7);
      }

      .cls-2 {
        fill: url(#radial-gradient-6);
      }

      .cls-3 {
        fill: url(#radial-gradient-5);
      }

      .cls-4 {
        fill: url(#radial-gradient-4);
      }

      .cls-5 {
        fill: url(#radial-gradient-9);
      }

      .cls-6 {
        fill: url(#radial-gradient-8);
      }

      .cls-7 {
        fill: url(#radial-gradient-3);
      }

      .cls-8 {
        fill: url(#radial-gradient-2);
      }

      .cls-9 {
        fill: url(#linear-gradient-7);
      }

      .cls-10 {
        fill: url(#linear-gradient-5);
      }

      .cls-11 {
        fill: url(#linear-gradient-6);
      }

      .cls-12 {
        fill: url(#linear-gradient-4);
      }

      .cls-13 {
        fill: url(#linear-gradient-3);
      }

      .cls-14 {
        fill: url(#linear-gradient-2);
      }

      .cls-15 {
        fill: url(#radial-gradient);
      }

      .cls-16 {
        fill: url(#linear-gradient);
      }

      .cls-17 {
        fill: #ffffff;
      }

      .cls-18 {
        fill: url(#radial-gradient-16);
      }

      .cls-19 {
        fill: url(#radial-gradient-12);
      }

      .cls-20 {
        fill: url(#radial-gradient-14);
      }

      .cls-21 {
        fill: url(#radial-gradient-13);
      }

      .cls-22 {
        fill: url(#radial-gradient-10);
      }

      .cls-23 {
        fill: url(#radial-gradient-17);
      }

      .cls-24 {
        fill: url(#radial-gradient-19);
      }

      .cls-25 {
        fill: url(#radial-gradient-11);
      }

      .cls-26 {
        fill: url(#radial-gradient-18);
      }

      .cls-27 {
        fill: url(#radial-gradient-15);
      }

      .cls-28 {
        fill: url(#radial-gradient-48);
      }

      .cls-29 {
        fill: url(#radial-gradient-47);
      }

      .cls-30 {
        fill: url(#radial-gradient-56);
      }

      .cls-31 {
        fill: url(#radial-gradient-58);
      }

      .cls-32 {
        fill: url(#radial-gradient-57);
      }

      .cls-33 {
        fill: url(#radial-gradient-44);
      }

      .cls-34 {
        fill: url(#radial-gradient-43);
      }

      .cls-35 {
        fill: url(#radial-gradient-49);
      }

      .cls-36 {
        fill: url(#radial-gradient-42);
      }

      .cls-37 {
        fill: url(#radial-gradient-40);
      }

      .cls-38 {
        fill: url(#radial-gradient-41);
      }

      .cls-39 {
        fill: url(#radial-gradient-46);
      }

      .cls-40 {
        fill: url(#radial-gradient-45);
      }

      .cls-41 {
        fill: url(#radial-gradient-25);
      }

      .cls-42 {
        fill: url(#radial-gradient-54);
      }

      .cls-43 {
        fill: url(#radial-gradient-59);
      }

      .cls-44 {
        fill: url(#radial-gradient-53);
      }

      .cls-45 {
        fill: url(#radial-gradient-52);
      }

      .cls-46 {
        fill: url(#radial-gradient-51);
      }

      .cls-47 {
        fill: url(#radial-gradient-50);
      }

      .cls-48 {
        fill: url(#radial-gradient-55);
      }

      .cls-49 {
        fill: url(#radial-gradient-35);
      }

      .cls-50 {
        fill: url(#radial-gradient-34);
      }

      .cls-51 {
        fill: url(#radial-gradient-22);
      }

      .cls-52 {
        fill: url(#radial-gradient-28);
      }

      .cls-53 {
        fill: url(#radial-gradient-23);
      }

      .cls-54 {
        fill: url(#radial-gradient-20);
      }

      .cls-55 {
        fill: url(#radial-gradient-24);
      }

      .cls-56 {
        fill: url(#radial-gradient-26);
      }

      .cls-57 {
        fill: url(#radial-gradient-29);
      }

      .cls-58 {
        fill: url(#radial-gradient-27);
      }

      .cls-59 {
        fill: url(#radial-gradient-21);
      }

      .cls-60 {
        fill: url(#radial-gradient-39);
      }

      .cls-61 {
        fill: url(#radial-gradient-38);
      }

      .cls-62 {
        fill: url(#radial-gradient-33);
      }

      .cls-63 {
        fill: url(#radial-gradient-32);
      }

      .cls-64 {
        fill: url(#radial-gradient-31);
      }

      .cls-65 {
        fill: url(#radial-gradient-30);
      }

      .cls-66 {
        fill: url(#radial-gradient-37);
      }

      .cls-67 {
        fill: url(#radial-gradient-36);
      }

      .cls-68 {
        fill: url(#radial-gradient-62);
      }

      .cls-69 {
        fill: url(#radial-gradient-64);
      }

      .cls-70 {
        fill: url(#radial-gradient-65);
      }

      .cls-71 {
        fill: url(#radial-gradient-63);
      }

      .cls-72 {
        fill: url(#radial-gradient-67);
      }

      .cls-73 {
        fill: url(#radial-gradient-68);
      }

      .cls-74 {
        fill: url(#radial-gradient-69);
      }

      .cls-75 {
        fill: url(#radial-gradient-70);
      }

      .cls-76 {
        fill: url(#radial-gradient-72);
      }

      .cls-77 {
        fill: url(#radial-gradient-75);
      }

      .cls-78 {
        fill: url(#radial-gradient-78);
      }

      .cls-79 {
        fill: url(#radial-gradient-77);
      }

      .cls-80 {
        fill: url(#radial-gradient-79);
      }

      .cls-81 {
        fill: url(#radial-gradient-61);
      }

      .cls-82 {
        fill: url(#radial-gradient-66);
      }

      .cls-83 {
        fill: url(#radial-gradient-60);
      }

      .cls-84 {
        fill: url(#radial-gradient-71);
      }

      .cls-85 {
        fill: url(#radial-gradient-74);
      }

      .cls-86 {
        fill: url(#radial-gradient-73);
      }

      .cls-87 {
        fill: url(#radial-gradient-76);
      }

      .cls-88 {
        fill: url(#radial-gradient-80);
      }

      .cls-89 {
        fill: url(#radial-gradient-81);
      }
    </style>
    <linearGradient id="linear-gradient" x1="291.23" y1="-72.3" x2="717.07" y2="378.19" gradientUnits="userSpaceOnUse">
      <stop offset="0" stop-color="#21ade4"/>
      <stop offset=".44" stop-color="#396db5"/>
      <stop offset="1" stop-color="#ffffff"/>
    </linearGradient>
    <radialGradient id="radial-gradient" cx="245.45" cy="226.24" fx="245.45" fy="226.24" r="278.11" gradientUnits="userSpaceOnUse">
      <stop offset="0" stop-color="#21ade4"/>
      <stop offset="1" stop-color="#0b62a9"/>
    </radialGradient>
    <radialGradient id="radial-gradient-2" cx="245.45" fx="245.45" r="278.11" xlink:href="#radial-gradient"/>
    <radialGradient id="radial-gradient-3" cx="245.45" cy="226.24" fx="245.45" fy="226.24" r="278.11" xlink:href="#radial-gradient"/>
    <radialGradient id="radial-gradient-4" cx="245.45" cy="226.24" fx="245.45" fy="226.24" r="278.11" xlink:href="#radial-gradient"/>
    <radialGradient id="radial-gradient-5" cx="245.45" cy="226.24" fx="245.45" fy="226.24" r="278.11" xlink:href="#radial-gradient"/>
    <radialGradient id="radial-gradient-6" cx="245.45" cy="226.24" fx="245.45" fy="226.24" r="278.11" xlink:href="#radial-gradient"/>
    <radialGradient id="radial-gradient-7" cx="245.45" cy="226.24" fx="245.45" fy="226.24" r="278.11" xlink:href="#radial-gradient"/>
    <radialGradient id="radial-gradient-8" cx="245.45" cy="226.24" fx="245.45" fy="226.24" r="278.11" xlink:href="#radial-gradient"/>
    <radialGradient id="radial-gradient-9" cx="245.45" cy="226.24" fx="245.45" fy="226.24" r="278.11" xlink:href="#radial-gradient"/>
    <radialGradient id="radial-gradient-10" cx="245.45" cy="226.24" fx="245.45" fy="226.24" r="278.11" xlink:href="#radial-gradient"/>
    <radialGradient id="radial-gradient-11" cx="245.45" cy="226.24" fx="245.45" fy="226.24" r="278.11" xlink:href="#radial-gradient"/>
    <radialGradient id="radial-gradient-12" cx="245.45" cy="226.24" fx="245.45" fy="226.24" r="278.11" xlink:href="#radial-gradient"/>
    <radialGradient id="radial-gradient-13" cy="226.24" fy="226.24" r="278.11" xlink:href="#radial-gradient"/>
    <radialGradient id="radial-gradient-14" cx="245.45" cy="226.24" fx="245.45" fy="226.24" r="278.11" xlink:href="#radial-gradient"/>
    <radialGradient id="radial-gradient-15" cx="245.45" cy="226.24" fx="245.45" fy="226.24" r="278.11" xlink:href="#radial-gradient"/>
    <radialGradient id="radial-gradient-16" cx="245.45" cy="226.24" fx="245.45" fy="226.24" r="278.11" xlink:href="#radial-gradient"/>
    <radialGradient id="radial-gradient-17" cx="245.45" cy="226.24" fx="245.45" fy="226.24" r="278.11" xlink:href="#radial-gradient"/>
    <radialGradient id="radial-gradient-18" cx="245.45" cy="226.24" fx="245.45" fy="226.24" r="278.11" xlink:href="#radial-gradient"/>
    <radialGradient id="radial-gradient-19" cx="245.45" cy="226.24" fx="245.45" fy="226.24" r="278.11" xlink:href="#radial-gradient"/>
    <radialGradient id="radial-gradient-20" cx="245.45" cy="226.24" fx="245.45" fy="226.24" r="278.11" xlink:href="#radial-gradient"/>
    <radialGradient id="radial-gradient-21" cx="245.45" cy="226.24" fx="245.45" fy="226.24" r="278.11" xlink:href="#radial-gradient"/>
    <radialGradient id="radial-gradient-22" cx="245.45" cy="226.24" fx="245.45" fy="226.24" r="278.11" xlink:href="#radial-gradient"/>
    <radialGradient id="radial-gradient-23" cx="245.45" cy="226.24" fx="245.45" fy="226.24" r="278.11" xlink:href="#radial-gradient"/>
    <radialGradient id="radial-gradient-24" cx="245.45" fx="245.45" r="278.11" xlink:href="#radial-gradient"/>
    <radialGradient id="radial-gradient-25" cx="245.45" cy="226.24" fx="245.45" fy="226.24" r="278.11" xlink:href="#radial-gradient"/>
    <radialGradient id="radial-gradient-26" cx="245.45" cy="226.24" fx="245.45" fy="226.24" r="278.11" xlink:href="#radial-gradient"/>
    <radialGradient id="radial-gradient-27" cx="245.45" cy="226.24" fx="245.45" fy="226.24" r="278.11" xlink:href="#radial-gradient"/>
    <radialGradient id="radial-gradient-28" cx="245.45" cy="226.24" fx="245.45" fy="226.24" r="278.11" xlink:href="#radial-gradient"/>
    <radialGradient id="radial-gradient-29" cx="245.45" cy="226.24" fx="245.45" fy="226.24" r="278.11" xlink:href="#radial-gradient"/>
    <radialGradient id="radial-gradient-30" cx="245.45" cy="226.24" fx="245.45" fy="226.24" r="278.11" xlink:href="#radial-gradient"/>
    <radialGradient id="radial-gradient-31" cx="245.45" cy="226.24" fx="245.45" fy="226.24" r="278.11" xlink:href="#radial-gradient"/>
    <radialGradient id="radial-gradient-32" cx="245.45" cy="226.24" fx="245.45" fy="226.24" r="278.11" xlink:href="#radial-gradient"/>
    <radialGradient id="radial-gradient-33" cx="245.45" cy="226.24" fx="245.45" fy="226.24" r="278.11" xlink:href="#radial-gradient"/>
    <radialGradient id="radial-gradient-34" cx="245.45" cy="226.24" fx="245.45" fy="226.24" r="278.11" xlink:href="#radial-gradient"/>
    <radialGradient id="radial-gradient-35" cx="245.45" cy="226.24" fx="245.45" fy="226.24" r="278.11" xlink:href="#radial-gradient"/>
    <radialGradient id="radial-gradient-36" cx="245.45" cy="226.24" fx="245.45" fy="226.24" r="278.11" xlink:href="#radial-gradient"/>
    <radialGradient id="radial-gradient-37" cx="245.45" cy="226.24" fx="245.45" fy="226.24" r="278.11" xlink:href="#radial-gradient"/>
    <radialGradient id="radial-gradient-38" cx="245.45" cy="226.24" fx="245.45" fy="226.24" r="278.11" xlink:href="#radial-gradient"/>
    <radialGradient id="radial-gradient-39" cx="245.45" cy="226.24" fx="245.45" fy="226.24" r="278.11" xlink:href="#radial-gradient"/>
    <radialGradient id="radial-gradient-40" cx="245.45" cy="226.24" fx="245.45" fy="226.24" r="278.11" xlink:href="#radial-gradient"/>
    <radialGradient id="radial-gradient-41" cx="245.45" cy="226.24" fx="245.45" fy="226.24" r="278.11" xlink:href="#radial-gradient"/>
    <radialGradient id="radial-gradient-42" cx="245.45" cy="226.24" fx="245.45" fy="226.24" r="278.11" xlink:href="#radial-gradient"/>
    <radialGradient id="radial-gradient-43" cx="245.45" cy="226.24" fx="245.45" fy="226.24" r="278.11" xlink:href="#radial-gradient"/>
    <radialGradient id="radial-gradient-44" cx="245.45" cy="226.24" fx="245.45" fy="226.24" r="278.11" xlink:href="#radial-gradient"/>
    <radialGradient id="radial-gradient-45" cx="245.45" cy="226.24" fx="245.45" fy="226.24" r="278.11" xlink:href="#radial-gradient"/>
    <radialGradient id="radial-gradient-46" cx="245.45" cy="226.24" fx="245.45" fy="226.24" r="278.11" xlink:href="#radial-gradient"/>
    <radialGradient id="radial-gradient-47" cx="245.45" cy="226.24" fx="245.45" fy="226.24" r="278.11" xlink:href="#radial-gradient"/>
    <radialGradient id="radial-gradient-48" cx="245.45" cy="226.24" fx="245.45" fy="226.24" r="278.11" xlink:href="#radial-gradient"/>
    <radialGradient id="radial-gradient-49" cx="245.45" cy="226.24" fx="245.45" fy="226.24" r="278.11" xlink:href="#radial-gradient"/>
    <radialGradient id="radial-gradient-50" cx="245.45" cy="226.24" fx="245.45" fy="226.24" r="278.11" xlink:href="#radial-gradient"/>
    <radialGradient id="radial-gradient-51" cx="245.45" cy="226.24" fx="245.45" fy="226.24" r="278.11" xlink:href="#radial-gradient"/>
    <radialGradient id="radial-gradient-52" cx="245.45" cy="226.24" fx="245.45" fy="226.24" r="278.11" xlink:href="#radial-gradient"/>
    <radialGradient id="radial-gradient-53" cx="245.45" cy="226.24" fx="245.45" fy="226.24" r="278.11" xlink:href="#radial-gradient"/>
    <radialGradient id="radial-gradient-54" cx="245.45" cy="226.24" fx="245.45" fy="226.24" r="278.11" xlink:href="#radial-gradient"/>
    <radialGradient id="radial-gradient-55" cx="245.45" cy="226.24" fx="245.45" fy="226.24" r="278.11" xlink:href="#radial-gradient"/>
    <radialGradient id="radial-gradient-56" cx="245.45" cy="226.23" fx="245.45" fy="226.23" r="278.1" xlink:href="#radial-gradient"/>
    <radialGradient id="radial-gradient-57" cx="245.45" cy="226.24" fx="245.45" fy="226.24" r="278.11" xlink:href="#radial-gradient"/>
    <radialGradient id="radial-gradient-58" cx="245.45" cy="226.24" fx="245.45" fy="226.24" r="278.11" xlink:href="#radial-gradient"/>
    <radialGradient id="radial-gradient-59" cx="245.45" cy="226.24" fx="245.45" fy="226.24" r="278.11" xlink:href="#radial-gradient"/>
    <radialGradient id="radial-gradient-60" cx="245.45" cy="226.24" fx="245.45" fy="226.24" r="278.11" xlink:href="#radial-gradient"/>
    <radialGradient id="radial-gradient-61" cx="245.45" cy="226.24" fx="245.45" fy="226.24" r="278.11" xlink:href="#radial-gradient"/>
    <radialGradient id="radial-gradient-62" cx="245.45" cy="226.24" fx="245.45" fy="226.24" r="278.11" xlink:href="#radial-gradient"/>
    <radialGradient id="radial-gradient-63" cx="245.45" cy="226.24" fx="245.45" fy="226.24" r="278.11" xlink:href="#radial-gradient"/>
    <radialGradient id="radial-gradient-64" cx="245.45" fx="245.45" r="278.11" xlink:href="#radial-gradient"/>
    <radialGradient id="radial-gradient-65" cx="245.45" cy="226.24" fx="245.45" fy="226.24" r="278.11" xlink:href="#radial-gradient"/>
    <radialGradient id="radial-gradient-66" cx="245.45" cy="226.24" fx="245.45" fy="226.24" r="278.11" xlink:href="#radial-gradient"/>
    <radialGradient id="radial-gradient-67" cx="245.45" cy="226.24" fx="245.45" fy="226.24" r="278.11" xlink:href="#radial-gradient"/>
    <radialGradient id="radial-gradient-68" cx="245.45" cy="226.24" fx="245.45" fy="226.24" r="278.11" xlink:href="#radial-gradient"/>
    <radialGradient id="radial-gradient-69" cx="245.45" fx="245.45" r="278.11" xlink:href="#radial-gradient"/>
    <radialGradient id="radial-gradient-70" cx="245.45" cy="226.24" fx="245.45" fy="226.24" r="278.11" xlink:href="#radial-gradient"/>
    <radialGradient id="radial-gradient-71" cx="245.45" cy="226.24" fx="245.45" fy="226.24" r="278.11" xlink:href="#radial-gradient"/>
    <radialGradient id="radial-gradient-72" cx="245.45" cy="226.24" fx="245.45" fy="226.24" r="278.11" xlink:href="#radial-gradient"/>
    <radialGradient id="radial-gradient-73" cx="245.45" cy="226.24" fx="245.45" fy="226.24" r="278.11" xlink:href="#radial-gradient"/>
    <radialGradient id="radial-gradient-74" cx="245.45" cy="226.24" fx="245.45" fy="226.24" r="278.11" xlink:href="#radial-gradient"/>
    <radialGradient id="radial-gradient-75" cx="245.45" cy="226.24" fx="245.45" fy="226.24" r="278.11" xlink:href="#radial-gradient"/>
    <radialGradient id="radial-gradient-76" cx="245.45" cy="226.24" fx="245.45" fy="226.24" r="278.11" xlink:href="#radial-gradient"/>
    <radialGradient id="radial-gradient-77" cx="245.45" fx="245.45" r="278.11" xlink:href="#radial-gradient"/>
    <radialGradient id="radial-gradient-78" cx="245.45" fx="245.45" r="278.11" xlink:href="#radial-gradient"/>
    <radialGradient id="radial-gradient-79" r="278.11" xlink:href="#radial-gradient"/>
    <radialGradient id="radial-gradient-80" cx="245.45" fx="245.45" r="278.11" xlink:href="#radial-gradient"/>
    <radialGradient id="radial-gradient-81" cy="226.24" fy="226.24" r="278.11" xlink:href="#radial-gradient"/>
    <linearGradient id="linear-gradient-2" x1="107.45" y1="101.42" x2="533.29" y2="551.91" xlink:href="#linear-gradient"/>
    <linearGradient id="linear-gradient-3" x1="47.22" y1="447.67" x2="1241.65" y2="447.67" gradientUnits="userSpaceOnUse">
      <stop offset="0" stop-color="#21ade4"/>
      <stop offset=".92" stop-color="#396db5"/>
      <stop offset="1" stop-color="#315fac"/>
    </linearGradient>
    <linearGradient id="linear-gradient-4" x1="618.32" y1="421.8" x2="1087.95" y2="421.8" xlink:href="#linear-gradient-3"/>
    <linearGradient id="linear-gradient-5" x1="1135.89" y1="461.64" x2="732.47" y2="512.91" gradientUnits="userSpaceOnUse">
      <stop offset="0" stop-color="#273171"/>
      <stop offset="1" stop-color="#0b62a9"/>
    </linearGradient>
    <linearGradient id="linear-gradient-6" x1="660.85" y1="584.45" x2="516.29" y2="516.37" xlink:href="#linear-gradient-5"/>
    <linearGradient id="linear-gradient-7" x1="232.01" y1="534.83" x2="285.8" y2="502.05" xlink:href="#linear-gradient-5"/>
  </defs>
  <g id="Layer_1-2" data-name="Layer 1">
    <g>
      <g>
        <path class="cls-16" d="M265.33,416.37c-2.31,1.07-2.11-.03-.87-2.05,23.13-24.39,48.72-45.41,77.48-63.24,61.24-37.97,120.92-49.36,191.64-33,24.14,5.59,46.25,13.83,69.42,22.24l38.11,13.82c26.69,9.68,66.53,8,86.09-14.68,9.36-10.85,14.02-24.16,11.6-38.47-2.02-11.94-9.91-23.33-21.26-30.62-12.32-7.92-25.07-13.53-39-18.97l-113.57-44.3c-39.49-15.4-69.86-40.51-78.61-83.29-6.14-30.04,2.15-60.52,22.46-83.93C532.06,13.08,566.52-.7,602.38.2l246.98-.2-66.2,59.55-191.62.03c-14.36,0-27.93,4.64-38.23,14.1-17.48,16.05-15.32,43.13,2.71,57.82,6.68,5.44,13.63,8.92,21.85,12.05l108.26,41.16c27.12,10.31,56.87,23.64,78.2,42.59,20.96,18.62,34.26,43.04,36.19,71.52,2.2,32.4-9.9,64.13-33.47,86.24-33.96,31.86-81.7,31.9-123.07,14.44l-65.34-27.57c-23.26-9.81-45.57-18.87-70.01-25.17-46.96-12.1-94.71-9.34-139.72,8.28-40.65,15.91-69.35,35.92-103.58,61.34Z"/>
        <g>
          <path class="cls-17" d="M995.09,54.49l3.24-4.75c-19.38-11.24-37.06-8.82-57.12,2.02,3.62-7.66,10.47-11.77,17.39-15.68,10.81-6.12,23.47-6.09,34.14-.67,2.23-1.83,4.87-2.23,7.62-.93,12.93-25.73,35.9-31.12,63.23-25.81-23.62,4.88-42.36,12.8-51.74,35.94l9.25,2.16c-3.22,8.87-15.95,10.51-26,7.72Z"/>
          <path class="cls-17" d="M1101.05,98.66c-10.88-8.3-24.08-9.79-36.9-6.52l-18.51,6.44c14.42-17.24,32.98-23.86,52.84-13.28,2.35-1.58,4.73-2.72,7.81-2.81,14.02-24.02,36.31-26.23,62.13-19.5-22.9,2-44.24,10.91-53.33,31.83,2.75.95,5.47.79,8.25,2.81-5.83,8.3-16.58,7.85-25.08,5.18.97-.96,2.44-2.51,2.8-4.16Z"/>
          <path class="cls-17" d="M1141.85,209.43l-17.1,3.67c-29.69-2.77-58.18-6.47-88.06-7.13-27.33-.61-53.13,2.18-79.94,6.91l-99.84,47.23-36.29,17.83-5.21-18.79,53.56-29.04,54.54-27.57c10.76-5.44,21.29-8.45,33.51-10.1,41.77-5.63,83.12-7.19,125.7-5.92-.53-.59-2.24-.5-2.69-2.14-.03-.09-.05-.19-.07-.3-.02-.11-.03-.23-.04-.36l13.38,3.03c6.99,1.58,12.63,4.51,18.04,8.35-1.46,2.73-4.95.46-7.15.28l-16.74-1.35c-19.18-1.54-37.58-2.16-56.93-.99,4.64,2.82,10.06,2.87,15.81,2.94l46.97.6,13.47,1.07,9.54,1.3c9.23,1.26,18.42,3.13,25.55,10.46Z"/>
          <path class="cls-17" d="M982.32,256.91c-2.63.67-3.89.31-1.79-1.76l9-5.91c-4.55-4.12-8.44-7.96-14.24-9.7l-151.03,67.7-1.97-17.65c40.7-20.53,80.59-40.58,122.15-58.67,13.16-5.73,25.32-9.61,39.56-11.38,41.25-5.07,82-6.44,124.68-2.65l-43.07,12.11c-28.66,7.62-56.22,16.42-83.28,27.92Z"/>
          <path class="cls-17" d="M993.17,163.13c-22.38-1.11-45.43-1.51-67.6,5.46-14.8,4.64-27.17,13.85-39.56,22.59,1.36-8.56,9.39-17,8.08-21.81,11.13-9.38,24.58-14.92,39.52-17.11l32.16-1.28c-14.36-3.67-30.08-3.05-44.74.91-13.85,3.74-25.59,14.94-26.06,15.07-.34.1-.81-.02-1.24-.4l-.02-.02c-.16-.21-.35-.44-.57-.67-.58-2.14.3-3.83,1.96-4.99l8.5-5.93c5.05-4.93,10.39-8.32,17.2-10.41l-5.54-15.92c-.49-1.4,1.66-2.78,2.61-2.68.81.11,2.14.72,2.67,1.95l6.17,14.33c.64,1.48,4.58.32,4.51-1l-8.78-22.42c-.66-1.67.18-2.34.62-2.9.43-.55,2.04-.85,2.32-.22l8.61,19.17c.51,1.12,1.16,1.96,2.02,2.1.48.07,1.38-.07,2.19-.48,1.7-.85,3.54-.27,4.03,1.39.29.97-.99,2.67-1.91,3.62l21.77,3.99c5.26,2.53,9.53,4.85,15.41,6.39,6.03,1.58,10.41,7.4,15.68,11.26Z"/>
          <path class="cls-17" d="M853.57,308.8c2.22,1.53.35,5.56-.93,6.85-1.2,1.21-4.22,3.54-6.08,2.04-1.5-1.21-.48-5.15.15-6.61.72-1.66,4.07-4.21,6.86-2.29Z"/>
          <path class="cls-17" d="M870.5,302.46c1.6,3.8-4.05,9.61-7.01,8.09-2.97-1.52-.98-5.45.09-7.03,1.23-1.83,5.44-4.57,6.92-1.06Z"/>
          <path class="cls-17" d="M902.61,287.11c3.14,3.43-1.56,10.9-5.79,9.26-2.1-.82-.98-5.15-.18-6.65.8-1.5,4.02-4.75,5.98-2.61Z"/>
          <path class="cls-17" d="M886.37,293.47c3.55,2.19-.59,10.64-5.06,9.62-2.68-.61-2.3-4.77-1.04-6.45,1.01-1.36,3.06-5.05,6.1-3.17Z"/>
          <path class="cls-17" d="M920.02,279.82c3.5,3.13-2.17,10.68-5.88,8.84-2.3-1.14-1.12-4.66-.34-6.06s3.7-5.04,6.22-2.78Z"/>
          <path class="cls-17" d="M938.88,274.83c-.02,2.54-2.73,7.05-6.16,5.54-2.73-1.2-.55-7.11,2.3-8.22,1.15-.45,2.25-.96,2.87-.49.88.68,1.02,1.51,1,3.17Z"/>
          <path class="cls-17" d="M836.04,317.32c.79,2.92-2.57,7.33-4.35,6.96-2.56-.54-1.85-4.16-.95-6.09.73-1.56,4.24-4.76,5.3-.87Z"/>
          <path class="cls-17" d="M982.32,256.91l-13.41,5.7c3.37-3.71,7.76-4.93,11.61-7.46-.07,1.3,1.04,1.66,1.79,1.76Z"/>
          <path class="cls-17" d="M950.04,273.35c-.53-3.32.35-6.29,3.17-8.28,1.17,3.31.32,6.29-3.17,8.28Z"/>
          <path class="cls-17" d="M1079.95,184.09h0s-12.42-8.17-12.42-8.17c-39.32-9.24-98.98-13-136.83-2.06-18.74,5.42-35.09,17.38-49.83,29.3-7.33,5.92-12.33,13.25-21.95,16.34,3.46-9.64,7.71-18.2,6.66-28.11-12.35-.77-22.97,5.79-30.03,14.95,1.35,16.07-6.65,28.46-17.11,39.76,39.05-21.51,75.83-40.71,114.59-59.33,35.56-5.87,70.15-8.02,105.98-6.45l41.01,4.09.47.05-.54-.35ZM839.28,219.38c.25-3.52,3.12-5.54,6.69-6.13,2.47-.9,4.34-2.91,8.44-1.92l-15.14,8.04Z"/>
          <path class="cls-17" d="M1269.49,194.21c-78.65,11.23-155.06,31.62-229.57,59.6l-129.04,53.17-93.84,41.67c-4.83,15.66-13.1,28.56-23.17,42,28.79-11.24,56.42-20.83,85.64-29.42,69.69-19.99,134.88-20.88,204.58-2.49l-47.72-1.35c39.63,10.79,68.9,34.28,108.96,47.54,10.66,3.52,20.22,6.38,30.6,12.34-7.58-12.2-9.75-24.25-6.78-37.74,7.32-33.29,34.64-77.78,55.87-105.18.7.24,1.27.38,1.47.2-.08.1-.15.21-.22.31l-.4,2.79-28.62,50.17c-6.91,14.63-13.73,28.47-16.86,45.68,11.4-23.1,24.95-44.81,40.67-66.51,28.8-39.76,59.89-75.93,93.42-112.97-16.1-3.23-29.92-1.95-45,.2ZM1146.25,270.36c.17-8.1,8.59-7.84,19.37-7.95-2.02,7.73-9.14,6.37-19.37,7.95ZM1165.83,256.83l-26.35,3.14,18.83-5.94c7.22-2.28,14.22-4.2,22.5-3.21l-14.98,6.01ZM1235.81,262.17c1.85-2.75,3.52-5.48,4.82-7.98,1.05-.34,1.44.08,1.19,1.21-2.06,2.17-4.06,4.42-6.02,6.76Z"/>
        </g>
      </g>
      <g>
        <path class="cls-15" d="M378.68,242.59l-2.25-.37-.29-.05-14.12-2.06-.3-.05-.28-.05-.28-.04-.3-.04-.32-.03-.43-.04c-.88-22.71-7.24-42.58-20.08-61.38l-.2-.23c-6.6-9.52-14.7-17.84-23.85-24.95-19.44-15.11-43.24-23.62-67.73-24.11l-.5-3.74-2.39-15.58c.14-.36-.41-.37-.26.01l-2.98,19.32c-20.6.48-40.77,6.5-58.23,17.58-10.89,6.9-20.64,15.43-28.71,25.5-15.56,19.41-24.02,42.55-24.73,67.44l-19.16,2.97,19.12,2.97c.19,13.67,3.04,27.06,8.07,39.76,3.46,8.74,7.94,16.95,13.45,24.54,5.39,7.43,11.55,14.18,18.56,20.11,8.01,6.76,16.83,12.37,26.33,16.83,13.67,6.43,30.26,10.35,45.39,10.47l3.09,19,2.9-18.52c.03-.23.03-.39.17-.43.17-.06.32-.05.57-.06,7.66-.07,15.09-1.14,22.56-2.83,8.58-1.94,16.76-4.93,24.65-8.81,20.07-9.88,37-25.39,48.32-44.72,9.74-16.64,15.43-36.01,15.57-55.35l18.82-2.86c.43.03.12-.42-.16-.19ZM214.63,135.01c6.79-1.87,13.63-3.08,20.64-3.65l.27,3.22c-12.83,1.21-24.88,4.31-36.64,9.81l-1.43-3.03c5.61-2.62,11.25-4.6,17.17-6.34ZM171.88,157.72l8.36-6.49,1.85,2.74c-3.83,2.68-7.34,5.55-10.83,8.66-6.01,5.28-11.18,11.2-15.94,17.85l-2.68-1.88c5.44-7.85,11.94-14.73,19.23-20.89ZM188.23,152.13c16.12-10.01,33.8-15.32,52.84-16.16l-5.52,36.33c-.04.3-.8.32-.97.14l-4.03-13.07.59,13.84-2.65.63-5.3-12.96,1.85,13.84-2.57.85-6.45-12.51,3.12,13.72-2.4,1.06-7.51-11.65,4.29,13.18-2.28,1.22-8.7-11.17,5.59,12.96-2.23,1.48-9.56-10.41,4.7,8.92,1.93,3.46-2.02,1.61-10.49-9.45,7.79,11.85-1.73,1.49-7.32-5.28-4.06-3,2.1,2.79,6.3,8.44-1.54,1.74-11.75-7.52,9.5,10.25-1.62,2.09-12.38-6.47,10.27,9.38-1.39,2.17-12.9-5.35,11.15,8.49-1.18,2.27-13.32-4.24,11.74,7.55-.94,2.37-13.62-2.99,12.35,6.4-.81,2.5-13.89-1.87,12.96,5.3-.62,2.65-13.87-.67,13.26,4.1c.12.14.06.55-.08.73l-17.62,2.59-19.92,3.03c.42-13.64,3.91-28.09,9.69-40.39,9.12-19.4,23.04-34.95,41.26-46.25ZM187.86,211.68c2.59-4.6,5.52-8.84,9.18-12.74l20.62,27.8-26.04,3.83-10.92,1.64c1.28-7.22,3.58-14.12,7.15-20.52ZM178.88,232.57l-2.23.3c1.34-9.7,4.83-18.79,10.07-27.01,2.32-3.65,4.84-6.95,7.91-10.12l1.34,1.74c-9.1,9.76-15.1,21.95-17.09,35.09ZM195.46,193.78l3.98,3.78,25.52,25.51,2.07,2.27-7.34,1.1-24.23-32.66ZM214.92,205.04l-13.78-10.21c4.13-3.85,8.66-7.1,13.69-9.73,4.01-2.2,8.09-3.85,12.48-5.09l7.32-1.7-5.59,37.24-14.12-10.51ZM199.66,193.72l-1.74-1.34c10.34-9.77,23.27-16.1,37.36-18.16l-.33,2.24c-13.63,2.35-25.06,7.95-35.29,17.26ZM136.74,211.09c1.59-5.37,3.6-10.42,5.93-15.51l2.95,1.5c-2.54,5.39-4.56,10.74-6.13,16.44-1.85,6.59-3.12,13.17-3.7,20.15l-3.26-.34c.73-7.52,2.05-14.91,4.21-22.22ZM142.72,290.69c-5.61-12.09-9.12-24.69-10.17-38.06l3.21-.22c1.05,12.78,4.45,25.15,9.84,36.82l-2.88,1.46ZM180.43,335.38c-11.06-7.65-20.07-16.65-27.84-27.66l2.57-1.85c7.41,10.46,16.47,19.44,26.98,26.8l-1.71,2.71ZM235.42,355.32c-13.38-1.22-25.75-4.45-37.99-10.09l1.48-2.97c11.43,5.35,24.19,8.72,36.72,9.76l-.21,3.29ZM198.55,340.14c-7.05-3.4-13.71-7.44-19.87-12.27-7.11-5.55-13.54-11.94-19.07-19.08-10.53-13.61-17.63-29.59-20.74-46.5-.97-5.24-1.54-10.39-1.61-15.64l37.63,5.72.08,1.01-12.48,3.68-.31.12c-.17-.17-.37.08-.15.17l13.58-.43.44,2.5-12.51,5.07c-.27-.11-.38.18-.18.23l13.65-1.9.8,2.6-12.16,6.32,13.36-2.95.98,2.37-11.48,7.46,13.03-4.2,1.21,2.32-11.03,8.54,12.84-5.41,1.44,2.25-10.27,9.39,12.33-6.45,1.61,2.08-9.27,10.08,11.54-7.3,1.58,1.68-8.23,11.13,8.25-6.23,2.83-2.1,1.83,1.65-7.39,11.71,10.05-9.41,2.19,1.69-6.23,12.05,9.02-9.94,2.32,1.43-5.11,12.55,8.12-10.76,2.42,1.21-3.86,12.76,7.09-11.18,2.45.99-2.81,13.3,6.18-12.06,2.61.81-1.7,13.45,5.08-12.58,2.68.58-.45,13.52,3.94-12.96c.23-.02.54.04.63.18l5.75,37.21c-14.75-.53-29.28-4.02-42.61-10.45ZM200.93,290.77l27.97-20.57,5.63,37.17c-12.63-2.08-24.22-7.78-33.59-16.6ZM234.8,309.21l.32,2.28c-14.09-1.95-27.04-8.32-37.35-18.21l1.71-1.4c9.76,9.22,21.98,15.27,35.32,17.34ZM210.03,281.86l-13.36,9.78,30.88-31.05,1.07,7.61-18.58,13.66ZM197.01,286.84c-6.81-7.46-11.75-16.26-14.61-25.89l-1.65-7.71,37.04,5.59-20.78,28.01ZM182.85,267.66c3.08,7.59,7.34,14.47,13.03,20.6-.26.73-.8,1.2-1.28,1.87-9.54-10.16-16.17-23.52-17.96-37.5l2.28.35c.68,5.12,1.99,9.92,3.93,14.67ZM229.05,258.71l-42.14-6.32-37.46-5.68-13.38-2.01-12-1.94h121.13s-16.14,15.96-16.14,15.96ZM229.26,226.41l5.87-39.58,5.13-33.88,4.92-31.38.05,120.99-15.97-16.16ZM347.8,195.56c4.03,8.46,6.81,17.25,8.55,26.42l1.59,11.32-3.23.32c-1.15-12.65-4.36-24.96-9.83-36.58l2.92-1.48ZM310.2,151.18l7.29,5.62c7.77,6.39,14.6,13.63,20.49,21.91l-2.74,1.82c-4.95-6.92-10.56-13.09-16.94-18.7l-9.91-7.87,1.8-2.78ZM255.19,131.35c5.94.41,11.64,1.47,17.47,2.83,7.01,1.74,13.69,4.14,20.36,7.17l-1.4,3.03c-7.52-3.51-15.18-6.06-23.23-7.78-4.48-.95-8.8-1.7-13.4-2l.21-3.25ZM290.64,145.83c20.89,9.89,37.93,25.24,49.22,45.48,3.91,7.01,7.12,14.29,9.24,22.02,2.39,8.19,3.86,16.85,4.12,25.5l-16.82-2.57-20.75-3.13c-.15-.14-.18-.72,0-.78l13.13-3.96-13.81.58-.62-2.68,12.92-5.23-13.77,1.8-.83-2.56,12.44-6.33-13.59,2.96-1.08-2.42,11.47-7.19c.28.06.34-.2.17-.26l-13.14,4.25-1.22-2.4,11.04-8.36-12.81,5.32-1.46-2.21,10.07-9.07c.14-.12.09-.21.03-.23-.08-.03-.25.09-.31.12l-6.34,3.36-5.46,2.97-1.63-2.1,9.37-10.24-11.56,7.47-1.66-1.77,5.59-7.54,2.77-3.65-3.78,2.81-7.5,5.44-1.7-1.48,7.5-11.67-10.18,9.33-2.07-1.55,6.51-12.47-9.43,10.45-2.2-1.51,5.41-12.94-8.52,11.17-2.36-1.23,4.28-13.35-7.5,11.81-2.41-1.1,3.08-13.66-3.5,6.71-2.9,5.81-2.57-.86,1.66-13.58-5.13,12.71-2.68-.66.58-13.78c-.43.68-.46,1.33-.67,2.02l-3.31,11.05c-.26.09-.95.04-1.01-.19l-1.29-8.1-4.32-28.24c14.66.67,28.06,3.83,41.3,9.87ZM275.54,185c4.94,2.67,9.48,5.72,13.77,9.82l-27.8,20.59-1.51-9.69-4.15-27.4c7,1.28,13.56,3.37,19.69,6.67ZM255.63,176.47l-.37-2.25c14.19,2.12,26.8,8.36,37.35,18.11l-1.81,1.38c-9.99-9.23-21.75-14.95-35.17-17.24ZM294.88,192.9l-31.91,32.05-1.22-7.53,33.13-24.52ZM293.41,198.86c8.69,9.34,14.27,20.95,16.34,33.39l-18.74-2.79-18.19-2.76,20.59-27.84ZM305,212.28c-2.85-5.45-6.25-10.37-10.47-14.85l1.29-1.84c9.62,10.32,16.06,23.15,17.99,37.28l-2.18-.31c-1.17-7.1-3.29-13.92-6.63-20.29ZM245.48,363.27l-.17-5.26-.02-115.22,16.05,16.35-2.7,18.13-3.27,21.6-9.89,64.41ZM301.32,276.34c-2.3,3.86-4.88,7.25-7.92,10.58l-20.57-28.07,36.9-5.55c-1.24,8.21-4.12,15.89-8.41,23.04ZM310.04,260.58l1.54-7.54,2.25-.36c-.74,6.16-2.41,12.06-4.94,17.76-3.22,7.27-7.49,13.87-13.03,19.69l-1.34-1.74c7.3-7.95,12.61-17.41,15.53-27.8ZM289.77,285.03l4.64,6.38-6.85-6.83-24.22-24.3,7.51-1.14,18.92,25.89ZM292.61,293.36c-8.45,8.12-18.78,13.93-30.2,16.75l-7.07,1.41.32-2.32c13.25-2.08,25.46-8.03,35.21-17.22l1.74,1.39ZM289.41,290.87c-4.09,3.91-8.65,7.1-13.75,9.86-6.25,3.28-12.79,5.43-19.8,6.64l5.59-37.33,27.95,20.82ZM275.18,351.78c-6.7,1.78-13.26,2.92-20.07,3.52l-.14-3.28c12.69-1.12,25.02-4.33,36.64-9.76l1.45,2.93c-5.88,2.71-11.65,4.87-17.87,6.59ZM310.12,335.37l-1.68-2.8c10.48-7.27,19.47-16.25,26.86-26.72l2.59,1.92c-7.7,10.95-16.79,19.9-27.77,27.6ZM336.46,300.86c-8.43,13.19-19.56,24.29-32.73,32.71-16.19,10.36-34.75,16.26-53.97,16.98-.17,0-.34.02-.42-.01-.08-.04-.04-.18.03-.41l5.61-36.68c.03-.21.63-.27.84-.23l3.89,12.96-.49-13.52,2.68-.6,5.05,12.58-1.61-13.38c0-.07.11-.17.18-.19l2.45-.67,5.32,10.68.13.22.42.79c-.03.18.22.17.18-.01l-2.75-12.93,2.43-1.03,7.19,11.34-3.92-12.83,2.34-1.27,8.14,10.63-5.04-12.47,2.22-1.46,9.16,10.05-6.21-12.09,2.14-1.74,10.12,9.61-7.41-11.87,1.62-1.57,4.88,3.54,6.29,4.7-8.27-11.01,1.66-1.8,11.72,7.5-9.5-10.23,1.65-2.06,6.48,3.37,5.8,3.01-10.26-9.28,1.48-2.29,12.79,5.37-11.03-8.53,1.22-2.36,13.27,4.32-11.73-7.51.99-2.45,13.45,2.99-12.18-6.33.77-2.57,13.75,1.82-12.85-5.29.5-2.5,13.69.41-12.98-3.92c-.14-.26-.12-.7.05-.94l37.57-5.74c-.04,5.19-.64,10.21-1.56,15.37-2.47,13.79-7.7,26.98-15.22,38.8ZM347.76,290.73l-2.85-1.47c5.39-11.77,8.77-23.98,9.84-36.95l3.21.42c-1.12,13.17-4.48,25.9-10.2,37.99ZM352.8,242.65h-107.36s16.01-15.87,16.01-15.87l34.85,5.22,38.1,5.74,15.7,2.42,16.34,2.47-13.64.02Z"/>
        <path class="cls-8" d="M398.69,248.16l1.06.24c-.23,1.51-.58,3.15-1.06,4.9h-15.28v-1.04c1.31-.11,2.12-.31,2.42-.6.3-.29.45-1.06.45-2.29v-11.08c0-.69-.02-1.2-.06-1.53-.04-.33-.16-.6-.37-.82-.21-.21-.44-.35-.7-.4-.26-.05-.69-.11-1.31-.16v-1.04h14.1s.09,1.52.28,4.44l-1.08.14c-.31-1.21-.72-2.06-1.23-2.55-.51-.49-1.47-.74-2.91-.74h-1.51c-.58,0-.94.05-1.06.15-.12.1-.18.39-.18.87v6.19h2.03c1.27,0,2.1-.12,2.47-.36.37-.24.65-.86.84-1.85h1.08v5.92h-1.08c-.19-1.02-.46-1.65-.83-1.87-.36-.23-1.19-.34-2.48-.34h-2.03v4.94c0,.76.05,1.32.14,1.68.09.36.29.61.58.73.4.19,1.31.28,2.73.28,1.65,0,2.75-.31,3.31-.92.58-.65,1.14-1.62,1.67-2.91Z"/>
        <path class="cls-7" d="M254.19,342.64c-.99,0-1.79.79-1.79,1.78s.79,1.79,1.79,1.79,1.78-.8,1.78-1.79-.79-1.78-1.78-1.78Z"/>
        <path class="cls-4" d="M304.04,324.73c-.98,0-1.77.79-1.77,1.77s.79,1.78,1.77,1.78,1.78-.79,1.78-1.78-.79-1.77-1.78-1.77Z"/>
        <path class="cls-3" d="M288.62,333.61c-.98,0-1.77.79-1.77,1.78s.79,1.77,1.77,1.77,1.78-.79,1.78-1.77-.79-1.78-1.78-1.78Z"/>
        <path class="cls-2" d="M280.3,336.98c-.97,0-1.77.79-1.77,1.77s.79,1.77,1.77,1.77,1.77-.79,1.77-1.77-.79-1.77-1.77-1.77Z"/>
        <path class="cls-1" d="M347.27,250c-.98,0-1.77.79-1.77,1.77s.79,1.76,1.77,1.76,1.76-.79,1.76-1.76-.79-1.77-1.76-1.77Z"/>
        <path class="cls-6" d="M271.8,339.64c-.97,0-1.77.79-1.77,1.76s.79,1.77,1.77,1.77,1.76-.79,1.76-1.77-.79-1.76-1.76-1.76Z"/>
        <circle class="cls-5" cx="323.84" cy="308.55" r="1.77"/>
        <path class="cls-22" d="M296.59,329.55c-.97,0-1.77.79-1.77,1.77s.79,1.77,1.77,1.77,1.77-.79,1.77-1.77-.79-1.77-1.77-1.77Z"/>
        <circle class="cls-25" cx="346.17" cy="260.57" r="1.76"/>
        <path class="cls-19" d="M317.8,313.36c-.97,0-1.75.79-1.75,1.75s.79,1.76,1.75,1.76,1.76-.79,1.76-1.76-.79-1.75-1.76-1.75Z"/>
        <path class="cls-21" d="M344.19,267.48c-.97,0-1.75.79-1.75,1.75s.79,1.76,1.75,1.76,1.76-.79,1.76-1.76-.79-1.75-1.76-1.75Z"/>
        <path class="cls-20" d="M341.5,276.01c-.97,0-1.76.79-1.76,1.76s.79,1.76,1.76,1.76,1.76-.79,1.76-1.76-.79-1.76-1.76-1.76Z"/>
        <path class="cls-27" d="M263.03,341.51c-.97,0-1.75.79-1.75,1.75s.79,1.75,1.75,1.75,1.75-.78,1.75-1.75-.79-1.75-1.75-1.75Z"/>
        <path class="cls-18" d="M338.08,284.28c-.97,0-1.75.78-1.75,1.74s.79,1.75,1.75,1.75,1.75-.78,1.75-1.75-.79-1.74-1.75-1.74Z"/>
        <path class="cls-23" d="M329.27,299.74c-.97,0-1.76.79-1.76,1.75s.79,1.76,1.76,1.76,1.75-.79,1.75-1.76-.79-1.75-1.75-1.75Z"/>
        <path class="cls-26" d="M311.17,319.35c-.97,0-1.76.79-1.76,1.76s.79,1.75,1.76,1.75,1.75-.79,1.75-1.75-.79-1.76-1.75-1.76Z"/>
        <path class="cls-24" d="M334.05,292.29c-.96,0-1.74.78-1.74,1.74s.78,1.74,1.74,1.74,1.74-.78,1.74-1.74-.78-1.74-1.74-1.74Z"/>
        <path class="cls-54" d="M201.9,333.6c-.99,0-1.78.79-1.78,1.78s.79,1.78,1.78,1.78,1.78-.8,1.78-1.78-.8-1.78-1.78-1.78Z"/>
        <path class="cls-59" d="M210.2,336.97c-.98,0-1.77.79-1.77,1.77s.79,1.77,1.77,1.77,1.77-.79,1.77-1.77-.79-1.77-1.77-1.77Z"/>
        <path class="cls-51" d="M186.47,324.74c-.98,0-1.77.79-1.77,1.77s.79,1.77,1.77,1.77,1.77-.79,1.77-1.77-.79-1.77-1.77-1.77Z"/>
        <path class="cls-53" d="M144.97,251.76c0-.97-.79-1.77-1.77-1.77s-1.77.79-1.77,1.77.79,1.77,1.77,1.77,1.77-.79,1.77-1.77Z"/>
        <path class="cls-55" d="M146.08,260.57c0-.98-.79-1.77-1.77-1.77s-1.77.79-1.77,1.77.79,1.77,1.77,1.77,1.77-.79,1.77-1.77Z"/>
        <path class="cls-41" d="M234.56,344.43c0,.98.79,1.77,1.77,1.77s1.77-.79,1.77-1.77-.79-1.77-1.77-1.77-1.77.79-1.77,1.77Z"/>
        <path class="cls-56" d="M218.7,339.71c-.97,0-1.76.79-1.76,1.77s.79,1.76,1.76,1.76,1.77-.79,1.77-1.76-.79-1.77-1.77-1.77Z"/>
        <circle class="cls-58" cx="149.05" cy="277.77" r="1.77"/>
        <path class="cls-52" d="M172.75,313.35c-.97,0-1.76.79-1.76,1.76s.79,1.76,1.76,1.76,1.76-.79,1.76-1.76-.79-1.76-1.76-1.76Z"/>
        <path class="cls-57" d="M193.97,329.57c-.98,0-1.77.79-1.77,1.76s.79,1.77,1.77,1.77,1.76-.79,1.76-1.77-.79-1.76-1.76-1.76Z"/>
        <path class="cls-65" d="M179.35,319.36c-.97,0-1.76.79-1.76,1.76s.79,1.77,1.76,1.77,1.77-.79,1.77-1.77-.79-1.76-1.77-1.76Z"/>
        <circle class="cls-64" cx="227.47" cy="343.34" r="1.77"/>
        <path class="cls-63" d="M148.05,269.24c0-.97-.79-1.75-1.75-1.75s-1.76.79-1.76,1.75.79,1.76,1.76,1.76,1.75-.79,1.75-1.76Z"/>
        <path class="cls-62" d="M152.42,284.29c-.97,0-1.75.78-1.75,1.75s.79,1.75,1.75,1.75,1.75-.79,1.75-1.75-.79-1.75-1.75-1.75Z"/>
        <path class="cls-50" d="M166.68,306.78c-.97,0-1.75.79-1.75,1.76s.79,1.75,1.75,1.75,1.76-.79,1.76-1.75-.79-1.76-1.76-1.76Z"/>
        <path class="cls-49" d="M161.25,299.74c-.97,0-1.75.79-1.75,1.75s.79,1.75,1.75,1.75,1.75-.79,1.75-1.75-.79-1.75-1.75-1.75Z"/>
        <path class="cls-67" d="M156.44,292.29c-.96,0-1.74.77-1.74,1.73s.78,1.74,1.74,1.74,1.73-.78,1.73-1.74-.77-1.73-1.73-1.73Z"/>
        <path class="cls-66" d="M220.85,281.05c-2.17,0-3.92,1.76-3.92,3.92s1.75,3.92,3.92,3.92,3.92-1.75,3.92-3.92-1.75-3.92-3.92-3.92Z"/>
        <path class="cls-61" d="M269.56,288.88c2.17,0,3.92-1.75,3.92-3.92s-1.75-3.92-3.92-3.92-3.92,1.76-3.92,3.92,1.75,3.92,3.92,3.92Z"/>
        <path class="cls-60" d="M202.89,271.13c2.17,0,3.93-1.76,3.93-3.93s-1.76-3.93-3.93-3.93-3.92,1.77-3.92,3.93,1.76,3.93,3.92,3.93Z"/>
        <path class="cls-37" d="M287.52,271.13c2.17,0,3.94-1.76,3.94-3.93s-1.77-3.93-3.94-3.93-3.93,1.76-3.93,3.93,1.76,3.93,3.93,3.93Z"/>
        <path class="cls-38" d="M345.5,234.26c0,.98.8,1.77,1.78,1.77s1.77-.79,1.77-1.77-.79-1.77-1.77-1.77-1.78.79-1.78,1.77Z"/>
        <path class="cls-36" d="M288.53,152.85c.98,0,1.77-.8,1.77-1.77s-.79-1.78-1.77-1.78-1.77.8-1.77,1.78.79,1.77,1.77,1.77Z"/>
        <path class="cls-34" d="M303.99,161.73c.97,0,1.77-.79,1.77-1.77s-.79-1.77-1.77-1.77-1.77.79-1.77,1.77.79,1.77,1.77,1.77Z"/>
        <path class="cls-33" d="M338.08,201.89c.97,0,1.75-.79,1.75-1.75s-.79-1.76-1.75-1.76-1.76.79-1.76,1.76.79,1.75,1.76,1.75Z"/>
        <path class="cls-40" d="M323.77,179.63c.97,0,1.74-.78,1.74-1.75s-.78-1.74-1.74-1.74-1.75.78-1.75,1.74.79,1.75,1.75,1.75Z"/>
        <path class="cls-39" d="M341.51,210.11c.97,0,1.75-.79,1.75-1.75s-.79-1.74-1.75-1.74-1.74.78-1.74,1.74.78,1.75,1.74,1.75Z"/>
        <path class="cls-29" d="M255.93,142.03c0-.97-.79-1.75-1.75-1.75s-1.75.79-1.75,1.75.78,1.75,1.75,1.75,1.75-.78,1.75-1.75Z"/>
        <path class="cls-28" d="M280.26,149.41c.97,0,1.74-.78,1.74-1.74s-.78-1.74-1.74-1.74-1.74.78-1.74,1.74.78,1.74,1.74,1.74Z"/>
        <path class="cls-35" d="M271.72,146.77c.97,0,1.75-.78,1.75-1.74s-.79-1.75-1.75-1.75-1.74.79-1.74,1.75.78,1.74,1.74,1.74Z"/>
        <path class="cls-47" d="M329.24,186.66c.97,0,1.75-.78,1.75-1.74s-.79-1.74-1.75-1.74-1.74.78-1.74,1.74.78,1.74,1.74,1.74Z"/>
        <path class="cls-46" d="M296.51,156.95c.97,0,1.74-.78,1.74-1.74s-.78-1.74-1.74-1.74-1.74.78-1.74,1.74.78,1.74,1.74,1.74Z"/>
        <path class="cls-45" d="M311.07,167.15c.96,0,1.74-.78,1.74-1.74s-.78-1.73-1.74-1.73-1.74.77-1.74,1.73.78,1.74,1.74,1.74Z"/>
        <path class="cls-44" d="M344.43,225.5c0,.96.78,1.74,1.74,1.74s1.74-.78,1.74-1.74-.78-1.74-1.74-1.74-1.74.78-1.74,1.74Z"/>
        <path class="cls-42" d="M317.64,173.06c.97,0,1.74-.78,1.74-1.74s-.78-1.74-1.74-1.74-1.74.78-1.74,1.74.78,1.74,1.74,1.74Z"/>
        <path class="cls-48" d="M334.01,194.07c.96,0,1.73-.77,1.73-1.73s-.77-1.72-1.73-1.72-1.72.77-1.72,1.72.77,1.73,1.72,1.73Z"/>
        <path class="cls-30" d="M262.99,144.89c.95,0,1.73-.77,1.73-1.73s-.78-1.73-1.73-1.73-1.73.78-1.73,1.73.77,1.73,1.73,1.73Z"/>
        <circle class="cls-32" cx="344.24" cy="216.86" r="1.73"/>
        <path class="cls-31" d="M201.93,152.85c.98,0,1.77-.79,1.77-1.77s-.79-1.77-1.77-1.77-1.77.79-1.77,1.77.79,1.77,1.77,1.77Z"/>
        <path class="cls-43" d="M152.43,201.91c.97,0,1.77-.79,1.77-1.77s-.79-1.77-1.77-1.77-1.77.79-1.77,1.77.79,1.77,1.77,1.77Z"/>
        <path class="cls-83" d="M143.17,236.03c.97,0,1.77-.79,1.77-1.77s-.79-1.76-1.77-1.76-1.76.79-1.76,1.76.79,1.77,1.76,1.77Z"/>
        <path class="cls-81" d="M236.26,143.79c.97,0,1.76-.79,1.76-1.75s-.79-1.75-1.76-1.75-1.75.79-1.75,1.75.79,1.75,1.75,1.75Z"/>
        <path class="cls-68" d="M166.82,179.64c.97,0,1.75-.79,1.75-1.75s-.79-1.74-1.75-1.74-1.75.78-1.75,1.74.79,1.75,1.75,1.75Z"/>
        <path class="cls-71" d="M186.49,161.72c.97,0,1.75-.79,1.75-1.76s-.79-1.75-1.75-1.75-1.76.79-1.76,1.75.79,1.76,1.76,1.76Z"/>
        <path class="cls-69" d="M144.32,227.23c.97,0,1.75-.79,1.75-1.75s-.79-1.76-1.75-1.76-1.76.79-1.76,1.76.79,1.75,1.76,1.75Z"/>
        <path class="cls-70" d="M218.74,146.74c.96,0,1.74-.78,1.74-1.74s-.78-1.74-1.74-1.74-1.74.78-1.74,1.74.78,1.74,1.74,1.74Z"/>
        <path class="cls-82" d="M227.47,144.94c.97,0,1.76-.78,1.76-1.75s-.79-1.75-1.76-1.75-1.75.79-1.75,1.75.79,1.75,1.75,1.75Z"/>
        <path class="cls-72" d="M172.86,173.08c.96,0,1.74-.78,1.74-1.74s-.78-1.73-1.74-1.73-1.73.77-1.73,1.73.77,1.74,1.73,1.74Z"/>
        <path class="cls-73" d="M161.26,186.66c.96,0,1.74-.77,1.74-1.73s-.78-1.74-1.74-1.74-1.74.77-1.74,1.74.78,1.73,1.74,1.73Z"/>
        <path class="cls-74" d="M149,210.11c.96,0,1.74-.78,1.74-1.74s-.78-1.74-1.74-1.74-1.74.78-1.74,1.74.78,1.74,1.74,1.74Z"/>
        <path class="cls-75" d="M194,156.96c.96,0,1.74-.78,1.74-1.74s-.78-1.74-1.74-1.74-1.74.78-1.74,1.74.78,1.74,1.74,1.74Z"/>
        <path class="cls-84" d="M146.25,218.6c.95,0,1.72-.78,1.72-1.73s-.77-1.73-1.72-1.73-1.73.77-1.73,1.73.77,1.73,1.73,1.73Z"/>
        <path class="cls-76" d="M156.51,194.07c.95,0,1.72-.77,1.72-1.73s-.77-1.72-1.72-1.72-1.73.77-1.73,1.72.77,1.73,1.73,1.73Z"/>
        <path class="cls-86" d="M179.44,167.2c.96,0,1.74-.78,1.74-1.74s-.78-1.73-1.74-1.73-1.73.77-1.73,1.73.77,1.74,1.73,1.74Z"/>
        <path class="cls-85" d="M210.25,149.46c.97,0,1.74-.78,1.74-1.74s-.78-1.74-1.74-1.74-1.74.78-1.74,1.74.79,1.74,1.74,1.74Z"/>
        <circle class="cls-77" cx="220.84" cy="200.77" r="3.92"/>
        <path class="cls-87" d="M269.61,204.69c2.17,0,3.92-1.75,3.92-3.92s-1.76-3.92-3.92-3.92-3.92,1.76-3.92,3.92,1.75,3.92,3.92,3.92Z"/>
        <path class="cls-79" d="M287.53,214.57c-2.18,0-3.94,1.77-3.94,3.94s1.77,3.94,3.94,3.94,3.94-1.77,3.94-3.94-1.77-3.94-3.94-3.94Z"/>
        <path class="cls-78" d="M202.89,222.46c2.19,0,3.96-1.77,3.96-3.95s-1.77-3.95-3.96-3.95-3.95,1.77-3.95,3.95,1.77,3.95,3.95,3.95Z"/>
        <path class="cls-80" d="M256.09,86.48v1.04c-.81.05-1.39.21-1.73.47-.35.26-.55.73-.62,1.42-.2,1.49-.3,3.09-.3,4.82v11.51h-1.39l-12.71-14.62h-.06l-.02,6.59c0,1.7.08,3.25.24,4.66.07.69.3,1.19.69,1.48.39.3,1.12.47,2.18.53v1.04h-7.29v-1.04c.84-.08,1.44-.26,1.82-.54.38-.28.59-.73.65-1.35.2-1.66.3-3.25.3-4.78v-6.08c0-.98-.04-1.66-.11-2.04-.07-.38-.25-.73-.53-1.07-.27-.33-.58-.57-.95-.71-.37-.14-.87-.24-1.52-.31v-1.04h5.52l11.69,12.85h.08v-5.1c0-.94-.08-2.53-.24-4.76-.07-.68-.31-1.16-.72-1.44-.41-.29-1.16-.45-2.23-.51v-1.04h7.25Z"/>
        <path class="cls-88" d="M111.63,233.44v1.04c-1,.16-1.7.43-2.1.82-.41.39-.81,1.18-1.21,2.39-1.37,3.78-3.02,8.79-4.96,15.02h-1.55c-2.62-6.93-4.26-11.28-4.94-13.05h-.06c-2.12,6.03-3.65,10.38-4.56,13.05h-1.59c-2.34-7.64-3.93-12.72-4.78-15.24-.37-1.13-.74-1.88-1.12-2.24-.37-.36-1.01-.61-1.91-.75v-1.04h8.82v1.04c-1.09.12-1.74.34-1.95.65-.21.31-.18.83.1,1.56,1,3.41,2.02,6.76,3.07,10.04h.06c1.71-4.86,3.17-9.23,4.38-13.11h1.43c2.83,7.36,4.53,11.75,5.1,13.19h.06c.98-2.95,1.92-6.23,2.81-9.86.27-.86.27-1.46.02-1.79s-.96-.56-2.11-.68v-1.04h6.99Z"/>
        <path class="cls-89" d="M250.82,386.52l-1.02.22c-.85-2.68-2.24-4.02-4.16-4.02-.86,0-1.57.27-2.12.82-.55.54-.83,1.23-.83,2.07,0,.77.28,1.43.84,1.97.56.54,1.53,1.15,2.91,1.81,1.74.81,3.05,1.67,3.93,2.59.88.92,1.32,2.05,1.32,3.41,0,1.7-.67,3.12-2.02,4.26s-3.08,1.71-5.21,1.71c-1.09,0-2.09-.15-3.01-.44-.84-.25-1.43-.47-1.79-.66-.29-.73-.58-2.4-.88-5.02l1.04-.32c.16.52.38,1.06.67,1.61.29.56.64,1.12,1.08,1.68.43.56.95,1.03,1.56,1.38.61.36,1.25.54,1.91.54.92,0,1.64-.28,2.18-.85.54-.56.81-1.32.81-2.26,0-.81-.29-1.51-.88-2.11-.58-.6-1.48-1.19-2.69-1.79-1.73-.84-3.02-1.7-3.87-2.59s-1.28-1.98-1.28-3.29c0-1.66.62-3.03,1.87-4.11s2.89-1.62,4.92-1.62c1.23,0,2.63.26,4.18.78.04.37.12,1.02.25,1.94.13.92.22,1.68.29,2.28Z"/>
      </g>
      <path class="cls-14" d="M106.3,129.16c-53.15,63.04-56.68,152.45-9.86,219.6,32.48,48.34,84.59,78.11,144.87,80.12-24.87,21.35-52.56,36.12-83.08,45.65-34.3-14.88-65.45-34.91-90.5-62.18-24.28-26.43-43.08-56.14-54.7-90.19C-.38,282.85-3.69,241.19,4.27,200.19c11.73-60.4,45.89-114.25,95.03-150.69,97.97-72.65,232.48-61.79,317.18,25.87,54.52,58.88,76.91,139.6,61.2,218.79-22.14-.72-43.51,2.72-65.11,9.64,18.65-59.83,6.76-124.41-32.57-172.24-70.46-86.85-202.28-87.1-273.7-2.4Z"/>
      <path class="cls-13" d="M1240.96,488.32c1.39,1.66.67,2.04-2.17,1.16-70.87-30.91-160.76-47.26-235.09-22.12l-48.41,20.44c-24.24,10.23-47.48,20.37-73.09,26.94-24.76,6.36-49.08,9.93-74.85,9.7-37.92-.35-74.11-7.14-109.94-18.99-25.98-8.6-50.21-18.45-74.8-30.21l-42.51-20.34c-22.67-10.85-44.58-21.1-68.45-29.27-42.08-14.39-86.48-14.38-128.23.7-19.24,6.95-36.69,15.14-54.16,25.5l-47.71,28.28c-52.65,31.21-111.93,52.14-172.81,37.2-21.87-5.37-41.88-13.63-60.76-25.24-1.5-1.5-.8-1.94,2.11-1.34,13.11,3.95,25.86,7.33,39.62,9.23,48.38,6.69,104.01-8.23,144.15-34.84l45.75-30.32c15.05-9.97,29.35-19.66,45.11-28.43,59.87-33.32,124.64-45.71,191.15-26.09,23.7,6.99,45.42,16.07,66.28,29.16l46,28.86c67.98,42.65,151.48,55.2,229.71,38.95,20.61-4.28,39.69-9.89,59.4-16.78l74.97-26.18c26.97-8.17,53.6-10.95,81.85-10.12,62.28,1.83,118.2,26.68,166.85,64.16Z"/>
      <path class="cls-12" d="M618.88,416.96c-1.33-1.82-.3-2.15,3.08-.98l27.24,10.93c20.19,5.94,40.31,9.82,61.66,10.47,35.84,1.09,70.65-3.38,104.42-14.85l76.54-25.99c23.29-7.25,45.67-13.46,70.25-15.22,43.44-3.12,87.04,5.58,125.87,26.04-42.66-7.98-83.68-6.25-124.08,6.95l-53.14,19.35c-25.5,9.29-49.91,18.23-76.66,23.48-43.66,8.57-86.96,7.55-130.15-2.91-30.88-7.48-59.09-19.35-85.05-37.27Z"/>
      <path class="cls-10" d="M1092.18,482.41c.67,1.56-1.15,2.03-5.48,1.42-17.32-2.28-34.61,1.64-50.71,8.6l-37.08,19.71-54.17,29.11c-46.24,21.19-96.03,29.81-147.09,25.37-58.95-5.13-114.57-23.43-165.97-52.2-25.37-14.2-48.39-30.11-71.83-46.83-1.43-1.55-.76-1.9,2.01-1.06,53.25,27.38,104.86,53.17,163.81,67.31,80.95,19.42,157.03,9.65,231.84-25.6l45.21-21.3c28.69-13.52,59.91-14.23,89.46-4.53Z"/>
      <path class="cls-11" d="M325.77,481.47c-2.8.75-3.98.6-1.99-1.89,15.84-10.51,31.39-20.27,49.45-27.22,46.71-17.98,98.03-14.61,142.82,7.52,20.34,10.05,38.06,22.08,56.33,35.39,30.11,21.93,63.71,43.49,98.93,54.45-35.78-1.89-69.06-11.46-101.46-25.3l-58.83-28.21c-19.55-9.37-38.24-18.28-59.41-23.78-42.2-10.97-85.68-7.08-125.84,9.04Z"/>
      <path class="cls-9" d="M297.64,516.04c-32.75,17.9-68.99,24.09-105.86,18.93,26.71-3.73,52.03-12.09,76.26-24.85,24.92-13.11,51.06-21.48,80.25-21.77l-50.65,27.69Z"/>
    </g>
  </g>
</svg>